<svg id="Layer_1" enable-background="new 0 0 512 512" height="512" viewBox="0 0 512 512" width="512" xmlns="http://www.w3.org/2000/svg"><g><g><g><path d="m0 31.936h512v448.129h-512z" fill="#fff6cc"/><path d="m470.793 31.936h41.207v448.129h-41.207z" fill="#fff1b5"/><path d="m0 31.936h512v58.892h-512z" fill="#7b7b7f"/><path d="m470.793 31.936h41.207v58.892h-41.207z" fill="#6b6b73"/></g><g fill="#d6cebc"><path d="m234.891 145.256h-177.154c-4.267 0-7.726 3.459-7.726 7.726s3.459 7.726 7.726 7.726h177.153c4.267 0 7.726-3.459 7.726-7.726s-3.458-7.726-7.725-7.726z"/><path d="m181.016 181.312h-123.279c-4.267 0-7.726 3.459-7.726 7.726s3.459 7.726 7.726 7.726h123.279c4.267 0 7.726-3.459 7.726-7.726s-3.459-7.726-7.726-7.726z"/></g><path d="m0 311.863h512v168.201h-512z" fill="#80e1ff"/><path d="m470.793 311.863h41.207v168.201h-41.207z" fill="#59d8ff"/><g><path d="m57.738 232.035h177.153v197.189h-177.153z" fill="#ff7de9"/><path d="m193.684 232.035h41.207v197.189h-41.207z" fill="#ff5ee4"/><path d="m277.109 189.038h177.153v196.521h-177.153z" fill="#fd0"/></g><path d="m454.263 421.497h-105.547c-4.267 0-7.726 3.459-7.726 7.726s3.459 7.726 7.726 7.726h105.546c4.267 0 7.726-3.459 7.726-7.726.001-4.267-3.458-7.726-7.725-7.726z" fill="#fff"/><path d="m454.263 145.256h-34.34c-4.267 0-7.726 3.459-7.726 7.726s3.459 7.726 7.726 7.726h34.34c4.267 0 7.726-3.459 7.726-7.726s-3.459-7.726-7.726-7.726z" fill="#ff7de9"/><g><g><g><circle cx="365.686" cy="287.299" fill="#ff7de9" r="59.151"/></g></g><g fill="#e330c5"><path d="m340.818 261.666c-9.943 0-9.96 15.453 0 15.453 9.943 0 9.96-15.453 0-15.453z"/><path d="m396.448 287.077c-9.943 0-9.96 15.453 0 15.453 9.943 0 9.96-15.453 0-15.453z"/><path d="m369.663 309.054c-9.943 0-9.96 15.453 0 15.453 9.943 0 9.96-15.453 0-15.453z"/></g></g><g><g><g><circle cx="145.617" cy="332.689" fill="#fd0" r="41.031"/></g></g><path d="m82.776 367.371c-3.07 0-5.974-1.843-7.18-4.869-1.579-3.964.354-8.458 4.318-10.037l127.081-50.634c3.964-1.579 8.458.354 10.037 4.318s-.354 8.458-4.318 10.037l-127.081 50.634c-.937.374-1.905.551-2.857.551z" fill="#fff"/></g></g><g><path d="m35.461 69.108c10.293 0 10.31-15.453 0-15.453-10.294 0-10.311 15.453 0 15.453z" fill="#fff"/></g><g><path d="m63.104 69.108c10.293 0 10.31-15.453 0-15.453-10.293 0-10.31 15.453 0 15.453z" fill="#fff"/></g><g><path d="m90.747 69.108c10.293 0 10.31-15.453 0-15.453-10.293 0-10.31 15.453 0 15.453z" fill="#fff"/></g></g></svg>