<svg id="Capa_1" enable-background="new 0 0 512 512" height="512" viewBox="0 0 512 512" width="512" xmlns="http://www.w3.org/2000/svg"><g><path d="m241.311 229.538h87.475v245.05h-87.475z" fill="#cde2ff" transform="matrix(.981 -.195 .195 .981 -63.269 62.449)"/><path d="m288.891 375.155c6.603-5.605 5.082-13.292 5.052-22.883 3.887-1.722 15.971-4.322 33.952-8.993l-3.022-15.174-.434.107c-21.993 5.72-31.734 7.518-37.517 10.303-5.754 2.771-8.433 6.998-8.433 13.304 0 5.511.31 9.952.062 11.785-2.994 1.762-15.321 4.393-33.891 9.594l3.023 15.183.295-.071c.096-.023.191-.048.285-.074 26.194-7.358 34.999-8.303 40.628-13.081z" fill="#9ec8fc"/><path d="m300.592 223.693h27.617v245.05h-27.617z" fill="#9ec8fc" transform="matrix(.981 -.195 .195 .981 -61.562 68.07)"/><path d="m330.513 262.367-92.773.003c-2.53-11.2-11.497-20.123-23.167-22.283l-10.081-1.869c-13.84-2.57-23.879-14.635-23.879-28.715l17.802-167.033c9.72-1.87 19.89-2.86 30.44-2.76 161.13 1.45 196.258 222.657 101.658 222.657z" fill="#ffc269"/><path d="m213.485 40.327c151.354 13.614 180.827 222.038 89.211 222.038l27.817.002c98.842 0 54.821-237.438-117.028-222.04z" fill="#ffa95f"/><ellipse cx="259.284" cy="250.674" fill="#4980ac" rx="69.959" ry="69.959" transform="matrix(.008 -1 1 .008 6.663 508.062)"/><path d="m248.091 181.618c78.012 12.549 77.982 125.568 0 138.113 42.821 6.888 81.152-26.193 81.152-69.056 0-42.859-38.326-75.946-81.152-69.057z" fill="#407194"/><circle cx="259.284" cy="250.674" fill="#75cff9" r="37.558"/><path d="m256.259 268.797c0-14.075-10.042-26.145-23.88-28.71l-10.081-1.869c-13.839-2.565-23.879-14.64-23.879-28.715l-25.754-159.776c-51.015 19.497-84.66 63.347-84.66 91.565 0 72.381 1.385 72.801-4.158 82.39l-37.22 64.386c-10.157 17.57 26.643 19.722 30.954 37.564l17.852 73.895c2.403 9.947 11.305 16.955 21.539 16.955 32.391 0 54.622 4.036 72.971-17.131 45.307-52.264 43.279-51.377 47.984-51.693 7.873-.53 18.333-.573 18.333-11.146v-67.715z" fill="#cde2ff"/><path d="m143.278 217.179h-19.615c-4.142 0-7.5-3.358-7.5-7.5s3.358-7.5 7.5-7.5h19.615c4.142 0 7.5 3.358 7.5 7.5s-3.358 7.5-7.5 7.5z" fill="#80b6fc"/><circle cx="304.149" cy="453.625" fill="#4980ac" r="58.375"/><path d="m304.149 434.061c-25.867 0-25.903 39.129 0 39.129 25.866 0 25.903-39.129 0-39.129z" fill="#ffc269"/><path d="m324.874 328.105s-24.223 6.082-26.813 6.759l3.024 15.187c2.858-.76 20.153-5.042 26.811-6.772z" fill="#80b6fc"/><path d="m243.386 10.302v130.792c0 5.69 4.612 10.302 10.302 10.302h203.149c5.69 0 10.302-4.612 10.302-10.302v-130.792c0-5.69-4.612-10.302-10.302-10.302h-203.15c-5.689 0-10.301 4.612-10.301 10.302z" fill="#4980ac"/><path d="m456.837 0h-24.724c5.689 0 10.302 4.612 10.302 10.302v130.792c0 5.69-4.612 10.302-10.302 10.302h24.724c5.689 0 10.302-4.612 10.302-10.302v-130.792c-.001-5.69-4.613-10.302-10.302-10.302z" fill="#407194"/><g fill="#cde2ff"><path d="m293.41 68.645c-4.143 0-7.5-3.358-7.5-7.5v-31.77c0-4.142 3.357-7.5 7.5-7.5s7.5 3.358 7.5 7.5v31.771c0 4.141-3.358 7.499-7.5 7.499z"/><path d="m386.366 68.645c-4.143 0-7.5-3.358-7.5-7.5v-31.77c0-4.142 3.357-7.5 7.5-7.5s7.5 3.358 7.5 7.5v31.771c0 4.141-3.358 7.499-7.5 7.499z"/><path d="m417.115 68.645c-4.143 0-7.5-3.358-7.5-7.5v-31.77c0-4.142 3.357-7.5 7.5-7.5s7.5 3.358 7.5 7.5v31.771c0 4.141-3.357 7.499-7.5 7.499z"/><path d="m417.115 129.521c-4.143 0-7.5-3.358-7.5-7.5v-31.771c0-4.142 3.357-7.5 7.5-7.5s7.5 3.358 7.5 7.5v31.771c0 4.142-3.357 7.5-7.5 7.5z"/><path d="m324.158 129.521c-4.143 0-7.5-3.358-7.5-7.5v-31.771c0-4.142 3.357-7.5 7.5-7.5s7.5 3.358 7.5 7.5v31.771c0 4.142-3.358 7.5-7.5 7.5z"/><path d="m293.41 129.521c-4.143 0-7.5-3.358-7.5-7.5v-31.771c0-4.142 3.357-7.5 7.5-7.5s7.5 3.358 7.5 7.5v31.771c0 4.142-3.358 7.5-7.5 7.5z"/><path d="m372.767 132.144h-4.262c-11.688 0-21.195-9.508-21.195-21.195v-7.627c0-11.687 9.508-21.195 21.195-21.195h4.262c11.687 0 21.194 9.508 21.194 21.195v7.627c.001 11.686-9.507 21.195-21.194 21.195zm-4.261-35.018c-3.416 0-6.195 2.779-6.195 6.195v7.627c0 3.416 2.779 6.195 6.195 6.195h4.262c3.416 0 6.194-2.779 6.194-6.195v-7.627c0-3.416-2.778-6.195-6.194-6.195z"/><path d="m342.018 70.269h-4.261c-11.688 0-21.195-9.508-21.195-21.195v-7.628c0-11.687 9.508-21.195 21.195-21.195h4.261c11.688 0 21.195 9.508 21.195 21.195v7.628c.001 11.687-9.507 21.195-21.195 21.195zm-4.26-35.018c-3.416 0-6.195 2.779-6.195 6.195v7.628c0 3.416 2.779 6.195 6.195 6.195h4.261c3.416 0 6.195-2.779 6.195-6.195v-7.628c0-3.416-2.779-6.195-6.195-6.195z"/></g><path d="m256.259 268.797c0-.817-.037-1.626-.104-2.428-1.078-13.015-10.741-23.866-23.777-26.282l-10.081-1.869c-13.839-2.565-23.879-14.64-23.879-28.715l.002-167.074c-8.88 1.691-17.485 4.155-25.755 7.298v174.2c0 14.075 10.04 26.147 23.879 28.712l10.082 1.869c13.839 2.565 23.879 14.637 23.879 28.712 0 37.91 2.89 48.596-8.907 50.12-18.267 2.36-6.384-8.982-57.409 66.01-9.432 10.88-23.123 17.131-37.522 17.131 25.751 0 45.817 3.009 63.277-17.131 45.307-52.264 43.279-51.377 47.984-51.693 12.319-.829 16.853-1.166 18.333-11.433v-67.427z" fill="#9ec8fc"/></g></svg>