<svg xmlns="http://www.w3.org/2000/svg" xmlns:xlink="http://www.w3.org/1999/xlink" viewBox="0 0 689.63 447.75"><defs><style>.cls-1,.cls-2,.cls-3,.cls-4{stroke:#3f3f3f;stroke-miterlimit:10;}.cls-1{fill:url(#linear-gradient);}.cls-2{fill:url(#linear-gradient-2);}.cls-3{fill:url(#linear-gradient-3);}.cls-4{fill:#8c15e8;}</style><linearGradient id="linear-gradient" x1="106.65" y1="67.41" x2="106.65" y2="341.3" gradientUnits="userSpaceOnUse"><stop offset="0" stop-color="#e6e7e8"/><stop offset="0.39" stop-color="#e5e5e8"/><stop offset="0.53" stop-color="#e2dee8"/><stop offset="0.63" stop-color="#ddd3e8"/><stop offset="0.71" stop-color="#d6c2e8"/><stop offset="0.78" stop-color="#cdace8"/><stop offset="0.84" stop-color="#c190e8"/><stop offset="0.89" stop-color="#b370e8"/><stop offset="0.94" stop-color="#a34ae8"/><stop offset="0.99" stop-color="#9121e8"/><stop offset="1" stop-color="#8c15e8"/></linearGradient><linearGradient id="linear-gradient-2" x1="338.29" y1="71.67" x2="338.29" y2="336.72" xlink:href="#linear-gradient"/><linearGradient id="linear-gradient-3" x1="523.24" y1="72.33" x2="523.24" y2="336.39" xlink:href="#linear-gradient"/></defs><g id="Layer_2" data-name="Layer 2"><g id="Layer_1_copy" data-name="Layer 1 copy"><path class="cls-1" d="M212.8,71.67V341.3h-2.46L53.57,188.8V336.72H.5V67.41H3.12L159.56,219.59V71.67Z"/><path class="cls-2" d="M311.75,124.58v53.24h91.08v52.91H311.75v106H258.68v-265H417.9v52.91Z"/><path class="cls-3" d="M614.81,124.91H549.94V336.39H496.71V124.91h-65V72.33H614.81Z"/><path class="cls-4" d="M598.48,53.77V36.49h36.73V.5H652.4v36h36.73V53.77H652.4v36H635.21v-36Z"/><path class="cls-4" d="M.5,358.61H89.14V411.9H18.89v35.35H.59V411.9H.5Zm70.34,18.3H18.89v16.77h52Z"/><path class="cls-4" d="M194.12,358.61v70.24h70.15v18.4H175.73V358.61Z"/><path class="cls-4" d="M421.1,428.85V358.61h18.4v88.64H351V358.61h18.39v70.24Z"/><path class="cls-4" d="M544.57,428.85h51.94v-17H526.17V358.61h88.64v18.3H544.57v16.77h70.24v53.57H526.17v-18.4Z"/></g></g></svg>